<svg width="956" height="1070" viewBox="0 0 956 1070" fill="none" xmlns="http://www.w3.org/2000/svg">
<g id="Group 9">
<g id="fingerbody">
<path id="Vector 1" d="M773.316 835.465C773.946 841.129 761.13 913.519 753.263 928.466L546.364 999.268L284.782 579.962L485.788 216.511C489.565 215.253 503.096 218.085 509.389 219.658C511.907 215.882 621.099 171.408 675.381 149.643C755.309 123.21 789.975 157.51 797.318 177.964C808.646 188.663 792.598 260.042 783.157 294.394C812.737 264.185 847.928 277.087 861.826 287.314C915.951 324.445 879.658 410.824 854.746 449.372C905.724 416.016 938.398 450.683 948.362 472.186C974.166 526.31 918.73 583.371 887.787 605.136C906.668 608.283 919.779 619.559 923.975 624.804C968.03 677.669 925.024 733.367 898.014 754.607C796.531 834.063 787.878 884.411 783.944 882.838C780.011 881.265 772.53 828.385 773.316 835.465Z" fill="white"/>
<g id="Group 3">
<g id="Group 2">
<path id="Vector 10" d="M701.733 782.142C651.384 680.187 693.599 603.825 722.182 578.389L741.062 613.79L889.751 578.389L785.122 884.412C784.492 879.377 770.175 863.958 763.094 856.877C727.851 826.669 736.871 777.16 745.787 756.181C751.844 731.955 765.459 710.258 776.165 696.579L701.733 782.142Z" fill="white"/>
</g>
</g>
</g>
<path id="thumbLine" d="M332.384 276.915C359.131 404.883 369.516 689.77 197.073 805.571" stroke="black" stroke-width="1.57338"/>
<g id="entireThumb">
<g id="Group 8">
<g id="thumb">
<path id="Vector 1_2" d="M521.976 0C574.842 97.5496 519.354 185.397 485.002 217.126L455.494 287.142L485.002 604.965L752.476 929.081L545.577 999.883L86.5359 1069.11C77.0956 1055.27 24.7881 784.855 12.9877 718.248C-24.7734 549.582 28.7215 399.376 60.1891 345.357C129.418 218.228 269.449 149.209 330.811 130.591C403.186 109.822 488.411 34.8766 521.976 0Z" fill="white"/>
<path id="Vector 2" d="M521.976 0C532.99 15.996 551.713 63.8792 538.497 127.444M422.853 93.6161C430.72 93.0917 449.286 89.0533 460.614 77.0956C478.184 61.3618 513.48 28.9502 514.109 25.1741" stroke="black" stroke-width="3.14676"/>
</g>
<path id="Vector 12" d="M542.816 99.4993C542.026 153.688 498.904 264.894 332.735 276.203C125.024 290.339 343.002 89.2898 542.816 99.4993Z" fill="white" stroke="white" stroke-width="3.14676"/>
</g>
</g>
<g id="pumDark">
<path d="M327.642 273.729C305.281 364.919 231.012 399.771 196.672 405.798C217.755 444.161 208.119 536.032 200.665 577.173C269.664 667.734 224.361 719.836 213.98 739.489C199.924 874.074 370.469 889.002 462.574 855.461C587.793 806.407 681.152 807.507 686.21 833.449C688.766 871.183 737.853 863.846 762.077 855.461C709.689 798.231 750.364 730.991 777.25 704.525L699.786 777.635C649.315 682.671 694.196 603.377 722.945 575.601C679.502 539.124 695.261 457.682 708.571 421.52C638.933 372.466 642.288 265.868 652.669 218.7C576.004 317.437 445.035 289.713 389.133 263.509C410.935 273.729 344.678 272.157 327.642 273.729Z" fill="url(#paint0_linear_2_276)"/>
<path d="M327.642 273.729C305.281 364.919 231.012 399.771 196.672 405.798C217.755 444.161 208.119 536.032 200.665 577.173C269.664 667.734 224.361 719.836 213.98 739.489C199.924 874.074 370.469 889.002 462.574 855.461C587.793 806.407 681.152 807.507 686.21 833.449C688.766 871.183 737.853 863.846 762.077 855.461C709.689 798.231 750.364 730.991 777.25 704.525L699.786 777.635C649.315 682.671 694.196 603.377 722.945 575.601C679.502 539.124 695.261 457.682 708.571 421.52C638.933 372.466 642.288 265.868 652.669 218.7C576.004 317.437 445.035 289.713 389.133 263.509C410.935 273.729 344.678 272.157 327.642 273.729Z" fill="url(#paint1_linear_2_276)" fill-opacity="0.2"/>
<path d="M327.642 273.729C305.281 364.919 231.012 399.771 196.672 405.798C217.755 444.161 208.119 536.032 200.665 577.173C269.664 667.734 224.361 719.836 213.98 739.489C199.924 874.074 370.469 889.002 462.574 855.461C587.793 806.407 681.152 807.507 686.21 833.449C688.766 871.183 737.853 863.846 762.077 855.461C709.689 798.231 750.364 730.991 777.25 704.525L699.786 777.635C649.315 682.671 694.196 603.377 722.945 575.601C679.502 539.124 695.261 457.682 708.571 421.52C638.933 372.466 642.288 265.868 652.669 218.7C576.004 317.437 445.035 289.713 389.133 263.509C410.935 273.729 344.678 272.157 327.642 273.729Z" stroke="url(#paint2_linear_2_276)" stroke-width="3.14676"/>
</g>
<g id="clock">
<circle id="Ellipse 2" cx="501.908" cy="563.271" r="261.968" fill="#EE6047" stroke="#FFC4C4" stroke-width="7.8669"/>
<circle id="Ellipse 1" cx="501.908" cy="563.27" r="234.434" fill="white"/>
<circle id="Ellipse 3" cx="501.908" cy="563.27" r="225.151" stroke="black" stroke-opacity="0.2" stroke-width="2.83208"/>
<path id="00:00" d="M387.462 597.09C367.362 597.09 355.422 583.956 355.422 562.762C355.422 541.668 367.362 528.434 387.462 528.434C407.561 528.434 419.501 541.668 419.501 562.762C419.501 583.956 407.561 597.09 387.462 597.09ZM387.462 586.742C401.69 586.742 408.058 579.379 408.058 562.762C408.058 546.146 401.69 538.782 387.462 538.782C373.233 538.782 366.765 546.146 366.765 562.762C366.765 579.379 373.233 586.742 387.462 586.742ZM457.521 597.09C437.421 597.09 425.481 583.956 425.481 562.762C425.481 541.668 437.421 528.434 457.521 528.434C477.62 528.434 489.56 541.668 489.56 562.762C489.56 583.956 477.62 597.09 457.521 597.09ZM457.521 586.742C471.749 586.742 478.117 579.379 478.117 562.762C478.117 546.146 471.749 538.782 457.521 538.782C443.292 538.782 436.824 546.146 436.824 562.762C436.824 579.379 443.292 586.742 457.521 586.742ZM509.072 562.066H495.54V546.643H509.072V562.066ZM509.072 596.095H495.54V580.673H509.072V596.095ZM547.111 597.09C527.011 597.09 515.071 583.956 515.071 562.762C515.071 541.668 527.011 528.434 547.111 528.434C567.21 528.434 579.15 541.668 579.15 562.762C579.15 583.956 567.21 597.09 547.111 597.09ZM547.111 586.742C561.339 586.742 567.708 579.379 567.708 562.762C567.708 546.146 561.339 538.782 547.111 538.782C532.882 538.782 526.414 546.146 526.414 562.762C526.414 579.379 532.882 586.742 547.111 586.742ZM617.17 597.09C597.071 597.09 585.13 583.956 585.13 562.762C585.13 541.668 597.071 528.434 617.17 528.434C637.269 528.434 649.209 541.668 649.209 562.762C649.209 583.956 637.269 597.09 617.17 597.09ZM617.17 586.742C631.398 586.742 637.767 579.379 637.767 562.762C637.767 546.146 631.398 538.782 617.17 538.782C602.941 538.782 596.474 546.146 596.474 562.762C596.474 579.379 602.941 586.742 617.17 586.742Z" fill="#EE6047"/>
</g>
<path id="pamLine" d="M332.384 276.915C359.131 404.883 369.516 689.77 197.073 805.571" stroke="black" stroke-width="1.57338"/>
<g id="fingeroutline">
<path id="Vector 8" d="M765.449 575.07C754.96 569.826 732.88 555.088 728.475 538.096C737.915 508.988 763.876 452.189 792.197 457.854C796.655 458.378 806.987 461.158 812.651 468.081" stroke="#F24747" stroke-width="1.57338"/>
<path id="Vector 7" d="M762.91 427.172L750.323 409.865C745.078 380.495 738.365 320.34 753.47 314.676C756.092 313.889 762.281 313.889 766.057 320.182" stroke="#F24747" stroke-width="1.57338"/>
<path id="Vector" d="M721.402 577.78C682.54 548.564 692.814 468.099 705.275 424.813C716.422 432.418 745.559 445.896 772.93 438.974C717.547 449.043 679.576 404.359 667.514 380.758C622.83 273.139 657.287 189.593 680.101 161.272L750.903 279.275H791.024L782.757 424.813L828.385 465.721L839.799 450.774L852.772 469.654L833.105 490.895L816.584 526.296L766.236 856.706C730.363 825.238 734.12 774.89 743.823 753.65C750.654 734.141 758.539 719.874 764.856 710.66C749.427 728.955 718.512 764.813 700.941 785.117L698.981 781.184C648.864 679.069 692.806 603.301 721.402 577.78Z" fill="white"/>
</g>
<g id="nailsoutline">
<path id="Vector 4" d="M705.275 424.812C690.328 476.734 678.527 582.151 750.903 588.444C758.77 589.493 777.808 585.297 791.024 560.123C805.447 530.491 835.393 470.913 839.799 469.654" stroke="black" stroke-width="2.83208"/>
<path id="Vector 8_2" d="M765.449 575.07C754.96 569.826 732.88 555.088 728.475 538.096C737.915 508.988 763.876 452.189 792.197 457.854C796.655 458.378 806.987 461.158 812.651 468.081" stroke="#F24747" stroke-width="2.83208"/>
<path id="Vector 3" d="M635.26 184.086C635.26 192.74 638.721 211.935 652.567 219.487M680.101 161.272C657.287 189.593 622.83 273.139 667.514 380.758C679.576 404.359 717.547 449.043 772.93 438.974C772.668 394.919 773.402 305.236 778.437 298.943" stroke="black" stroke-width="2.83208"/>
<path id="Vector 7_2" d="M762.91 427.173L750.323 409.866C745.078 380.496 738.365 320.341 753.47 314.677C756.092 313.89 762.281 313.89 766.057 320.183" stroke="#F24747" stroke-width="2.83208"/>
<path id="Vector 9" d="M690.714 726.902C713.79 690.976 766.236 627.307 791.41 660.033M763.089 797.704C772.792 782.495 795.029 752.705 806.357 755.223" stroke="#F24747" stroke-width="2.83208"/>
<path id="Vector 5" d="M721.795 577.431C693.212 602.605 648.633 678.599 698.981 781.183M743.823 753.649C734.12 774.89 728.003 824.451 763.876 855.919" stroke="black" stroke-width="2.83208"/>
</g>
<path id="StopButton" d="M479.246 271.199C476.304 255.354 488.465 240.727 504.58 240.727V240.727C520.486 240.727 532.594 254.997 530.003 270.691L523.52 309.963C522.022 319.035 514.179 325.69 504.985 325.69V325.69C495.932 325.69 488.167 319.234 486.514 310.334L479.246 271.199Z" fill="#EE6047"/>
</g>
<defs>
<linearGradient id="paint0_linear_2_276" x1="288.511" y1="704.525" x2="1019.36" y2="135.269" gradientUnits="userSpaceOnUse">
<stop stop-color="white"/>
<stop offset="1" stop-color="#F49660"/>
</linearGradient>
<linearGradient id="paint1_linear_2_276" x1="252.574" y1="370.422" x2="770.044" y2="879.323" gradientUnits="userSpaceOnUse">
<stop stop-color="white" stop-opacity="0"/>
<stop offset="0.95" stop-color="#D44300"/>
</linearGradient>
<linearGradient id="paint2_linear_2_276" x1="282.122" y1="277.66" x2="741.701" y2="881.328" gradientUnits="userSpaceOnUse">
<stop stop-color="white"/>
<stop offset="1" stop-color="#F6AB80"/>
</linearGradient>
</defs>
</svg>
